<svg width="430" height="114" viewBox="0 0 430 114" fill="none" xmlns="http://www.w3.org/2000/svg">
<path d="M4.32 1.34399H51.936V14.784H34.752V72H20.832V14.784H4.32V1.34399ZM130.102 30.048L131.35 41.568L131.062 39.84C132.278 37.344 133.942 35.232 136.054 33.504C138.166 31.712 140.246 30.336 142.294 29.376C144.406 28.416 146.006 27.936 147.094 27.936L146.422 41.376C143.286 40.992 140.598 41.504 138.358 42.912C136.118 44.32 134.39 46.176 133.174 48.48C131.958 50.784 131.35 53.152 131.35 55.584V72H118.006V30.048H130.102ZM161.317 11.616H174.757V29.856H184.933V40.32H174.757V72H161.317V40.32H154.789V29.856H161.317V11.616ZM253.942 11.616H267.382V29.856H277.558V40.32H267.382V72H253.942V40.32H247.414V29.856H253.942V11.616ZM354.727 30.048L355.975 41.568L355.687 39.84C356.903 37.344 358.567 35.232 360.679 33.504C362.791 31.712 364.871 30.336 366.919 29.376C369.031 28.416 370.631 27.936 371.719 27.936L371.047 41.376C367.911 40.992 365.223 41.504 362.983 42.912C360.743 44.32 359.015 46.176 357.799 48.48C356.583 50.784 355.975 53.152 355.975 55.584V72H342.631V30.048H354.727Z" fill="#C290E5"/>
<path d="M59.898 50.496C59.898 46.208 60.89 42.368 62.874 38.976C64.922 35.584 67.77 32.928 71.418 31.008C75.066 29.024 79.258 28.032 83.994 28.032C88.794 28.032 92.954 29.024 96.474 31.008C99.994 32.928 102.682 35.584 104.538 38.976C106.458 42.368 107.418 46.208 107.418 50.496C107.418 54.784 106.458 58.656 104.538 62.112C102.682 65.504 99.994 68.192 96.474 70.176C92.954 72.16 88.73 73.152 83.802 73.152C79.194 73.152 75.066 72.256 71.418 70.464C67.834 68.672 65.018 66.08 62.97 62.688C60.922 59.296 59.898 55.232 59.898 50.496ZM73.434 50.592C73.434 52.768 73.882 54.752 74.778 56.544C75.674 58.272 76.89 59.648 78.426 60.672C79.962 61.696 81.69 62.208 83.61 62.208C85.722 62.208 87.546 61.696 89.082 60.672C90.618 59.648 91.802 58.272 92.634 56.544C93.466 54.752 93.882 52.768 93.882 50.592C93.882 48.352 93.466 46.368 92.634 44.64C91.802 42.912 90.618 41.536 89.082 40.512C87.546 39.488 85.722 38.976 83.61 38.976C81.69 38.976 79.962 39.488 78.426 40.512C76.89 41.536 75.674 42.912 74.778 44.64C73.882 46.368 73.434 48.352 73.434 50.592Z" fill="#9AE5E0"/>
<path d="M191.898 50.496C191.898 46.208 192.89 42.368 194.874 38.976C196.922 35.584 199.77 32.928 203.418 31.008C207.066 29.024 211.258 28.032 215.994 28.032C220.794 28.032 224.954 29.024 228.474 31.008C231.994 32.928 234.682 35.584 236.538 38.976C238.458 42.368 239.418 46.208 239.418 50.496C239.418 54.784 238.458 58.656 236.538 62.112C234.682 65.504 231.994 68.192 228.474 70.176C224.954 72.16 220.73 73.152 215.802 73.152C211.194 73.152 207.066 72.256 203.418 70.464C199.834 68.672 197.018 66.08 194.97 62.688C192.922 59.296 191.898 55.232 191.898 50.496ZM205.434 50.592C205.434 52.768 205.882 54.752 206.778 56.544C207.674 58.272 208.89 59.648 210.426 60.672C211.962 61.696 213.69 62.208 215.61 62.208C217.722 62.208 219.546 61.696 221.082 60.672C222.618 59.648 223.802 58.272 224.634 56.544C225.466 54.752 225.882 52.768 225.882 50.592C225.882 48.352 225.466 46.368 224.634 44.64C223.802 42.912 222.618 41.536 221.082 40.512C219.546 39.488 217.722 38.976 215.61 38.976C213.69 38.976 211.962 39.488 210.426 40.512C208.89 41.536 207.674 42.912 206.778 44.64C205.882 46.368 205.434 48.352 205.434 50.592Z" fill="#F8B9E4"/>
<path d="M284.523 50.496C284.523 46.208 285.515 42.368 287.499 38.976C289.547 35.584 292.395 32.928 296.043 31.008C299.691 29.024 303.883 28.032 308.619 28.032C313.419 28.032 317.579 29.024 321.099 31.008C324.619 32.928 327.307 35.584 329.163 38.976C331.083 42.368 332.043 46.208 332.043 50.496C332.043 54.784 331.083 58.656 329.163 62.112C327.307 65.504 324.619 68.192 321.099 70.176C317.579 72.16 313.355 73.152 308.427 73.152C303.819 73.152 299.691 72.256 296.043 70.464C292.459 68.672 289.643 66.08 287.595 62.688C285.547 59.296 284.523 55.232 284.523 50.496ZM298.059 50.592C298.059 52.768 298.507 54.752 299.403 56.544C300.299 58.272 301.515 59.648 303.051 60.672C304.587 61.696 306.315 62.208 308.235 62.208C310.347 62.208 312.171 61.696 313.707 60.672C315.243 59.648 316.427 58.272 317.259 56.544C318.091 54.752 318.507 52.768 318.507 50.592C318.507 48.352 318.091 46.368 317.259 44.64C316.427 42.912 315.243 41.536 313.707 40.512C312.171 39.488 310.347 38.976 308.235 38.976C306.315 38.976 304.587 39.488 303.051 40.512C301.515 41.536 300.299 42.912 299.403 44.64C298.507 46.368 298.059 48.352 298.059 50.592Z" fill="#F7D955"/>
<path d="M378.742 50.496C378.742 46.208 379.734 42.368 381.718 38.976C383.766 35.584 386.614 32.928 390.262 31.008C393.91 29.024 398.102 28.032 402.838 28.032C407.638 28.032 411.798 29.024 415.318 31.008C418.838 32.928 421.526 35.584 423.382 38.976C425.302 42.368 426.262 46.208 426.262 50.496C426.262 54.784 425.302 58.656 423.382 62.112C421.526 65.504 418.838 68.192 415.318 70.176C411.798 72.16 407.574 73.152 402.646 73.152C398.038 73.152 393.91 72.256 390.262 70.464C386.678 68.672 383.862 66.08 381.814 62.688C379.766 59.296 378.742 55.232 378.742 50.496ZM392.278 50.592C392.278 52.768 392.726 54.752 393.622 56.544C394.518 58.272 395.734 59.648 397.27 60.672C398.806 61.696 400.534 62.208 402.454 62.208C404.566 62.208 406.39 61.696 407.926 60.672C409.462 59.648 410.646 58.272 411.478 56.544C412.31 54.752 412.726 52.768 412.726 50.592C412.726 48.352 412.31 46.368 411.478 44.64C410.646 42.912 409.462 41.536 407.926 40.512C406.39 39.488 404.566 38.976 402.454 38.976C400.534 38.976 398.806 39.488 397.27 40.512C395.734 41.536 394.518 42.912 393.622 44.64C392.726 46.368 392.278 48.352 392.278 50.592Z" fill="#EF7BBA"/>
<path d="M214.455 106V88.5455H217.136V96.1364H218.909L225.182 88.5455H228.636L221.591 96.9545L228.727 106H225.273L219.545 98.6364H217.136V106H214.455ZM238.014 106.364C236.438 106.364 235.056 105.989 233.866 105.239C232.685 104.489 231.76 103.439 231.094 102.091C230.435 100.742 230.105 99.1667 230.105 97.3636C230.105 95.5455 230.435 93.9583 231.094 92.6023C231.76 91.2462 232.685 90.1932 233.866 89.4432C235.056 88.6932 236.438 88.3182 238.014 88.3182C239.59 88.3182 240.969 88.6932 242.151 89.4432C243.34 90.1932 244.264 91.2462 244.923 92.6023C245.59 93.9583 245.923 95.5455 245.923 97.3636C245.923 99.1667 245.59 100.742 244.923 102.091C244.264 103.439 243.34 104.489 242.151 105.239C240.969 105.989 239.59 106.364 238.014 106.364ZM238.014 103.955C239.211 103.955 240.196 103.648 240.969 103.034C241.741 102.42 242.313 101.614 242.685 100.614C243.056 99.6136 243.241 98.5303 243.241 97.3636C243.241 96.197 243.056 95.1098 242.685 94.1023C242.313 93.0947 241.741 92.2803 240.969 91.6591C240.196 91.0379 239.211 90.7273 238.014 90.7273C236.817 90.7273 235.832 91.0379 235.06 91.6591C234.287 92.2803 233.715 93.0947 233.344 94.1023C232.973 95.1098 232.787 96.197 232.787 97.3636C232.787 98.5303 232.973 99.6136 233.344 100.614C233.715 101.614 234.287 102.42 235.06 103.034C235.832 103.648 236.817 103.955 238.014 103.955ZM261.699 96.0455V98.5455H252.062V96.0455H261.699ZM252.699 88.5455V106H250.017V88.5455H252.699ZM263.744 88.5455V106H261.062V88.5455H263.744ZM266.778 111V103.5H268.233C268.589 103.129 268.896 102.727 269.153 102.295C269.411 101.864 269.634 101.352 269.824 100.761C270.021 100.163 270.188 99.4356 270.324 98.5795C270.46 97.7159 270.581 96.6742 270.688 95.4545L271.278 88.5455H282.369V103.5H285.051V111H282.369V106H269.46V111H266.778ZM271.278 103.5H279.688V91.0455H273.778L273.324 95.4545C273.134 97.2803 272.9 98.875 272.619 100.239C272.339 101.602 271.892 102.689 271.278 103.5ZM291.293 102.045L299.702 88.5455H302.793V106H300.111V92.5L291.747 106H288.611V88.5455H291.293V102.045ZM305.33 91.0455V88.5455H319.511V91.0455H313.784V106H311.102V91.0455H305.33ZM329.835 106.364C328.153 106.364 326.703 105.992 325.483 105.25C324.271 104.5 323.335 103.455 322.676 102.114C322.025 100.765 321.699 99.197 321.699 97.4091C321.699 95.6212 322.025 94.0455 322.676 92.6818C323.335 91.3106 324.252 90.2424 325.426 89.4773C326.608 88.7045 327.987 88.3182 329.562 88.3182C330.472 88.3182 331.369 88.4697 332.256 88.7727C333.142 89.0758 333.949 89.5682 334.676 90.25C335.403 90.9242 335.983 91.8182 336.415 92.9318C336.847 94.0455 337.062 95.4167 337.062 97.0455V98.1818H323.608V95.8636H334.335C334.335 94.8788 334.138 94 333.744 93.2273C333.358 92.4545 332.805 91.8447 332.085 91.3977C331.373 90.9508 330.532 90.7273 329.562 90.7273C328.494 90.7273 327.57 90.9924 326.79 91.5227C326.017 92.0455 325.422 92.7273 325.006 93.5682C324.589 94.4091 324.381 95.3106 324.381 96.2727V97.8182C324.381 99.1364 324.608 100.254 325.062 101.17C325.525 102.08 326.165 102.773 326.983 103.25C327.801 103.72 328.752 103.955 329.835 103.955C330.54 103.955 331.176 103.856 331.744 103.659C332.32 103.455 332.816 103.152 333.233 102.75C333.65 102.341 333.972 101.833 334.199 101.227L336.79 101.955C336.517 102.833 336.059 103.606 335.415 104.273C334.771 104.932 333.975 105.447 333.028 105.818C332.081 106.182 331.017 106.364 329.835 106.364ZM341.142 112.545V88.5455H343.733V91.3182H344.051C344.248 91.0152 344.521 90.6288 344.869 90.1591C345.225 89.6818 345.733 89.2576 346.392 88.8864C347.059 88.5076 347.96 88.3182 349.097 88.3182C350.566 88.3182 351.862 88.6856 352.983 89.4205C354.104 90.1553 354.979 91.197 355.608 92.5455C356.237 93.8939 356.551 95.4848 356.551 97.3182C356.551 99.1667 356.237 100.769 355.608 102.125C354.979 103.473 354.108 104.519 352.994 105.261C351.881 105.996 350.597 106.364 349.142 106.364C348.021 106.364 347.123 106.178 346.449 105.807C345.775 105.428 345.256 105 344.892 104.523C344.528 104.038 344.248 103.636 344.051 103.318H343.824V112.545H341.142ZM343.778 97.2727C343.778 98.5909 343.972 99.7538 344.358 100.761C344.744 101.761 345.309 102.545 346.051 103.114C346.794 103.674 347.703 103.955 348.778 103.955C349.9 103.955 350.835 103.659 351.585 103.068C352.343 102.47 352.911 101.667 353.29 100.659C353.676 99.6439 353.869 98.5152 353.869 97.2727C353.869 96.0455 353.68 94.9394 353.301 93.9545C352.93 92.9621 352.366 92.178 351.608 91.6023C350.858 91.0189 349.915 90.7273 348.778 90.7273C347.688 90.7273 346.771 91.0038 346.028 91.5568C345.286 92.1023 344.725 92.8674 344.347 93.8523C343.968 94.8295 343.778 95.9697 343.778 97.2727ZM367.733 106.364C366.097 106.364 364.688 105.977 363.506 105.205C362.324 104.432 361.415 103.367 360.778 102.011C360.142 100.655 359.824 99.1061 359.824 97.3636C359.824 95.5909 360.15 94.0265 360.801 92.6705C361.46 91.3068 362.377 90.2424 363.551 89.4773C364.733 88.7045 366.112 88.3182 367.688 88.3182C368.915 88.3182 370.021 88.5455 371.006 89C371.991 89.4545 372.797 90.0909 373.426 90.9091C374.055 91.7273 374.445 92.6818 374.597 93.7727H371.915C371.71 92.9773 371.256 92.2727 370.551 91.6591C369.854 91.0379 368.915 90.7273 367.733 90.7273C366.688 90.7273 365.771 91 364.983 91.5455C364.203 92.0833 363.593 92.8447 363.153 93.8295C362.722 94.8068 362.506 95.9545 362.506 97.2727C362.506 98.6212 362.718 99.7955 363.142 100.795C363.574 101.795 364.18 102.572 364.96 103.125C365.748 103.678 366.672 103.955 367.733 103.955C368.43 103.955 369.062 103.833 369.631 103.591C370.199 103.348 370.68 103 371.074 102.545C371.468 102.091 371.748 101.545 371.915 100.909H374.597C374.445 101.939 374.07 102.867 373.472 103.693C372.881 104.511 372.097 105.163 371.119 105.648C370.15 106.125 369.021 106.364 367.733 106.364ZM378.517 106V88.5455H381.199V96.1364H382.972L389.244 88.5455H392.699L385.653 96.9545L392.79 106H389.335L383.608 98.6364H381.199V106H378.517ZM400.841 106.409C399.735 106.409 398.731 106.201 397.83 105.784C396.928 105.36 396.212 104.75 395.682 103.955C395.152 103.152 394.886 102.182 394.886 101.045C394.886 100.045 395.083 99.2348 395.477 98.6136C395.871 97.9848 396.398 97.4924 397.057 97.1364C397.716 96.7803 398.443 96.5152 399.239 96.3409C400.042 96.1591 400.848 96.0152 401.659 95.9091C402.72 95.7727 403.58 95.6705 404.239 95.6023C404.905 95.5265 405.39 95.4015 405.693 95.2273C406.004 95.053 406.159 94.75 406.159 94.3182V94.2273C406.159 93.1061 405.852 92.2348 405.239 91.6136C404.633 90.9924 403.712 90.6818 402.477 90.6818C401.197 90.6818 400.193 90.9621 399.466 91.5227C398.739 92.0833 398.227 92.6818 397.932 93.3182L395.386 92.4091C395.841 91.3485 396.447 90.5227 397.205 89.9318C397.97 89.3333 398.803 88.9167 399.705 88.6818C400.614 88.4394 401.508 88.3182 402.386 88.3182C402.947 88.3182 403.591 88.3864 404.318 88.5227C405.053 88.6515 405.761 88.9205 406.443 89.3295C407.133 89.7386 407.705 90.3561 408.159 91.1818C408.614 92.0076 408.841 93.1136 408.841 94.5V106H406.159V103.636H406.023C405.841 104.015 405.538 104.42 405.114 104.852C404.689 105.284 404.125 105.652 403.42 105.955C402.716 106.258 401.856 106.409 400.841 106.409ZM401.25 104C402.311 104 403.205 103.792 403.932 103.375C404.667 102.958 405.22 102.42 405.591 101.761C405.97 101.102 406.159 100.409 406.159 99.6818V97.2273C406.045 97.3636 405.795 97.4886 405.409 97.6023C405.03 97.7083 404.591 97.803 404.091 97.8864C403.598 97.9621 403.117 98.0303 402.648 98.0909C402.186 98.1439 401.811 98.1894 401.523 98.2273C400.826 98.3182 400.174 98.4659 399.568 98.6705C398.97 98.8674 398.485 99.1667 398.114 99.5682C397.75 99.9621 397.568 100.5 397.568 101.182C397.568 102.114 397.913 102.818 398.602 103.295C399.299 103.765 400.182 104 401.25 104ZM424.236 106V91H419.599C418.554 91 417.732 91.2424 417.134 91.7273C416.535 92.2121 416.236 92.8788 416.236 93.7273C416.236 94.5606 416.505 95.2159 417.043 95.6932C417.588 96.1705 418.334 96.4091 419.281 96.4091H424.918V98.9091H419.281C418.099 98.9091 417.08 98.7008 416.224 98.2841C415.368 97.8674 414.709 97.2727 414.247 96.5C413.785 95.7197 413.554 94.7955 413.554 93.7273C413.554 92.6515 413.796 91.7273 414.281 90.9545C414.766 90.1818 415.459 89.5871 416.361 89.1705C417.27 88.7538 418.349 88.5455 419.599 88.5455H426.781V106H424.236ZM412.599 106L417.554 97.3182H420.463L415.509 106H412.599Z" fill="#EF7BBA"/>
</svg>
